<svg xmlns="http://www.w3.org/2000/svg" xmlns:xlink="http://www.w3.org/1999/xlink" width="1024" height="1024" viewBox="0 0 1024 1024">
  <defs>
    <style>
      .cls-1, .cls-10, .cls-11, .cls-12, .cls-13, .cls-14, .cls-15, .cls-16, .cls-17, .cls-18, .cls-19, .cls-2, .cls-21, .cls-23, .cls-24, .cls-25, .cls-26, .cls-27, .cls-28, .cls-29, .cls-3, .cls-30, .cls-31, .cls-32, .cls-33, .cls-34, .cls-35, .cls-36, .cls-4, .cls-5, .cls-6, .cls-7, .cls-8, .cls-9 {
        fill-rule: evenodd;
      }

      .cls-1 {
        fill: url(#linear-gradient);
      }

      .cls-2 {
        fill: url(#linear-gradient-2);
      }

      .cls-3 {
        fill: #b3b3b3;
      }

      .cls-4 {
        fill: url(#linear-gradient-3);
      }

      .cls-5 {
        fill: #ccc;
      }

      .cls-6 {
        fill: url(#radial-gradient);
      }

      .cls-7 {
        fill: url(#linear-gradient-4);
      }

      .cls-8 {
        fill: url(#linear-gradient-5);
      }

      .cls-9 {
        fill: url(#linear-gradient-6);
      }

      .cls-10 {
        fill: url(#linear-gradient-7);
      }

      .cls-11 {
        fill: url(#linear-gradient-8);
      }

      .cls-12 {
        fill: url(#linear-gradient-9);
      }

      .cls-13 {
        fill: url(#linear-gradient-10);
      }

      .cls-14 {
        fill: url(#linear-gradient-11);
      }

      .cls-15 {
        fill: url(#linear-gradient-12);
      }

      .cls-16 {
        fill: url(#linear-gradient-13);
      }

      .cls-17 {
        fill: url(#linear-gradient-14);
      }

      .cls-18 {
        fill: url(#linear-gradient-15);
      }

      .cls-19 {
        fill: url(#linear-gradient-16);
      }

      .cls-20, .cls-21 {
        fill: #997a5c;
      }

      .cls-22, .cls-23 {
        fill: #cca37a;
      }

      .cls-24 {
        fill: url(#linear-gradient-17);
      }

      .cls-25 {
        fill: url(#radial-gradient-2);
      }

      .cls-26 {
        fill: url(#radial-gradient-3);
      }

      .cls-27 {
        fill: url(#linear-gradient-18);
      }

      .cls-28 {
        fill: #141a33;
      }

      .cls-29 {
        fill: #f8cfad;
      }

      .cls-30 {
        fill: #f0c5a8;
      }

      .cls-31 {
        fill: #232c57;
      }

      .cls-32 {
        fill: #292966;
      }

      .cls-33 {
        fill: #e8b008;
      }

      .cls-34 {
        fill: #f6bb07;
      }

      .cls-35 {
        fill: #5e94eb;
      }

      .cls-36 {
        fill: #a2bdeb;
      }
    </style>
    <linearGradient id="linear-gradient" x1="512.342" y1="2266.13" x2="512.342" y2="666.063" gradientUnits="userSpaceOnUse">
      <stop offset="0.919" stop-color="#e6e6e6" stop-opacity="0"/>
      <stop offset="1" stop-color="#e6e6e6"/>
    </linearGradient>
    <linearGradient id="linear-gradient-2" x1="492.36" y1="772.375" x2="452.078" y2="610.813" gradientUnits="userSpaceOnUse">
      <stop offset="0" stop-color="#ccc"/>
      <stop offset="1" stop-color="#e6e6e6" stop-opacity="0"/>
    </linearGradient>
    <linearGradient id="linear-gradient-3" x1="212.125" y1="712.203" x2="241.344" y2="682.984" gradientUnits="userSpaceOnUse">
      <stop offset="0" stop-color="#ccc"/>
      <stop offset="1" stop-color="#fafafa"/>
    </linearGradient>
    <radialGradient id="radial-gradient" cx="792.86" cy="618.218" r="19.063" gradientUnits="userSpaceOnUse">
      <stop offset="0" stop-color="#fafafa"/>
      <stop offset="1.2" stop-color="#e6e6e6"/>
    </radialGradient>
    <linearGradient id="linear-gradient-4" x1="422.438" y1="814.735" x2="468.094" y2="769.079" gradientUnits="userSpaceOnUse">
      <stop offset="0" stop-color="#d7d7d7"/>
      <stop offset="0.485" stop-color="#fafafa"/>
      <stop offset="1" stop-color="#fafafa"/>
    </linearGradient>
    <linearGradient id="linear-gradient-5" x1="472.127" y1="773.406" x2="429.811" y2="603.688" gradientUnits="userSpaceOnUse">
      <stop offset="0" stop-color="#999"/>
      <stop offset="1" stop-color="#ccc"/>
    </linearGradient>
    <linearGradient id="linear-gradient-6" x1="525.375" y1="764.235" x2="677.719" y2="611.89" gradientUnits="userSpaceOnUse">
      <stop offset="0" stop-color="#ccc"/>
      <stop offset="1" stop-color="#f0f0f0"/>
    </linearGradient>
    <linearGradient id="linear-gradient-7" x1="438.047" y1="691.625" x2="613.953" y2="515.719" gradientUnits="userSpaceOnUse">
      <stop offset="0" stop-color="#ccc"/>
      <stop offset="1" stop-color="#fff"/>
    </linearGradient>
    <linearGradient id="linear-gradient-8" x1="542.846" y1="676.469" x2="507.06" y2="532.938" xlink:href="#linear-gradient-5"/>
    <linearGradient id="linear-gradient-9" x1="476.339" y1="640" x2="449.661" y2="533" xlink:href="#linear-gradient-5"/>
    <linearGradient id="linear-gradient-10" x1="488.171" y1="677.344" x2="561.735" y2="603.781" xlink:href="#linear-gradient-6"/>
    <linearGradient id="linear-gradient-11" x1="406" y1="519.094" x2="541.094" y2="384" gradientUnits="userSpaceOnUse">
      <stop offset="0" stop-color="#b3b3b3"/>
      <stop offset="0.392" stop-color="#e6e6e6"/>
      <stop offset="1" stop-color="#fff"/>
    </linearGradient>
    <linearGradient id="linear-gradient-12" x1="420.875" y1="518.172" x2="548.625" y2="390.422" xlink:href="#linear-gradient-7"/>
    <linearGradient id="linear-gradient-13" x1="620.281" y1="536.281" x2="572.844" y2="488.844" gradientUnits="userSpaceOnUse">
      <stop offset="0" stop-color="#fff"/>
      <stop offset="0.392" stop-color="#e6e6e6"/>
      <stop offset="1" stop-color="#b3b3b3"/>
    </linearGradient>
    <linearGradient id="linear-gradient-14" x1="570.344" y1="535.515" x2="614.781" y2="491.079" xlink:href="#linear-gradient-7"/>
    <linearGradient id="linear-gradient-15" x1="501.625" y1="646.188" x2="549.657" y2="598.156" xlink:href="#linear-gradient-11"/>
    <linearGradient id="linear-gradient-16" x1="507.156" y1="646.188" x2="551.47" y2="601.875" xlink:href="#linear-gradient-7"/>
    <linearGradient id="linear-gradient-17" x1="374.219" y1="376.422" x2="254.063" y2="376.422" gradientUnits="userSpaceOnUse">
      <stop offset="0" stop-color="#e6e6e6" stop-opacity="0"/>
      <stop offset="1" stop-color="#e6e6e6"/>
    </linearGradient>
    <radialGradient id="radial-gradient-2" cx="305.39" cy="425.531" r="11.594" xlink:href="#radial-gradient"/>
    <radialGradient id="radial-gradient-3" cx="744.39" cy="655.532" r="11.594" xlink:href="#radial-gradient"/>
    <linearGradient id="linear-gradient-18" x1="437.986" y1="730.844" x2="459.015" y2="646.5" xlink:href="#linear-gradient-7"/>
  </defs>
  <g id="画板_1" data-name="画板 1">
    <path id="椭圆_1" data-name="椭圆 1" class="cls-1" d="M512.33,666.07c441.828,0,800,358.18,800,800.03s-358.172,800.02-800,800.02-800-358.18-800-800.02S70.5,666.07,512.33,666.07Z"/>
    <path id="阴影" class="cls-2" d="M270.139,694.842L418.62,610.819,674.309,688.34l-148.48,84.023Z"/>
    <path id="圆角矩形_1" data-name="圆角矩形 1" class="cls-3" d="M226.459,715.059a1.913,1.913,0,0,1,1.913,1.913v14.2a1.913,1.913,0,0,1-3.825,0v-14.2A1.913,1.913,0,0,1,226.459,715.059Z"/>
    <path id="椭圆_8" data-name="椭圆 8" class="cls-4" d="M226.729,717.921c-12.958,0-15.519-6.217-14.36-13.726a22.98,22.98,0,0,1,2.193-6.913,11.074,11.074,0,0,1,0-6.075c1.926-8.217,8.039-13.94,12.237-13.94,4.374,0,10.312,6.068,12.238,13.94a9.727,9.727,0,0,1-.224,6.145,22.926,22.926,0,0,1,2.28,6.843C242.333,711.693,239.269,717.921,226.729,717.921Z"/>
    <path id="多边形_2" data-name="多边形 2" class="cls-5" d="M792.672,634.5a15.525,15.525,0,0,0-13.921-9.915q-9.934-.78-0.8-4.767a15.522,15.522,0,0,0,9.914-13.921q0.781-9.936,4.767-.8a15.526,15.526,0,0,0,13.922,9.915q9.935,0.782.8,4.767A15.524,15.524,0,0,0,797.44,633.7Q796.659,643.631,792.672,634.5Z"/>
    <path id="多边形_2-2" data-name="多边形 2" class="cls-6" d="M792.883,632.924a15.525,15.525,0,0,0-13.921-9.915q-9.934-.78-0.8-4.767a15.522,15.522,0,0,0,9.914-13.921q0.781-9.935,4.767-.8a15.525,15.525,0,0,0,13.922,9.914q9.934,0.782.8,4.767a15.524,15.524,0,0,0-9.914,13.922Q796.87,642.057,792.883,632.924Z"/>
    <path id="圆角矩形_1-2" data-name="圆角矩形 1" class="cls-3" d="M444.947,816.975h0.937a2.4,2.4,0,0,1,2.4,2.4v22.237a2.4,2.4,0,0,1-2.4,2.4h-0.937a2.4,2.4,0,0,1-2.4-2.4V819.375A2.4,2.4,0,0,1,444.947,816.975Z"/>
    <path id="椭圆_7" data-name="椭圆 7" class="cls-7" d="M445.253,760.609c12.4,0,20.481,18.489,22.445,34.191,1.943,15.531-2.846,28.432-22.445,28.432C425,823.232,421,810.354,422.808,794.8,424.772,777.926,432.857,760.609,445.253,760.609Z"/>
    <path id="矩形_2" data-name="矩形 2" class="cls-8" d="M527.125,691.666L374.81,603.681v81.735L527.125,773.4V691.666Z"/>
    <path id="矩形_2-2" data-name="矩形 2" class="cls-9" d="M525.366,691.192l152.367-87.969v81.7L525.366,772.894v-81.7Z"/>
    <path id="矩形_2-3" data-name="矩形 2" class="cls-10" d="M525.975,515.723l152.366,87.969L526.025,691.631,373.659,603.663Z"/>
    <path id="矩形_2-4" data-name="矩形 2" class="cls-11" d="M524.945,532.948l124.319,71.776L524.985,676.476,400.666,604.7Z"/>
    <path id="形状_5" data-name="形状 5" class="cls-12" d="M525,533v70l-63,37-61-35Z"/>
    <path id="矩形_2-5" data-name="矩形 2" class="cls-13" d="M524.954,603.773l63.808,36.447-63.8,37.119-63.8-37.119Z"/>
    <path id="形状_4" data-name="形状 4" class="cls-14" d="M544.483,448.076c-7.872,25.972-34.457,65.3-35.59,66.972a9.415,9.415,0,0,1-4.113,3.44,7.448,7.448,0,0,1-4.928.34c0.083,0.024.165,0.046,0.248,0.066L477.712,513.4q-0.124-.03-0.249-0.066c-1.686-.488-41.522-12.049-60.064-26.976-6.378-5.143-14.313-11.543-17.568-24.04-0.167-.638-0.316-1.279-0.451-1.921-0.045-.215-0.08-0.43-0.122-0.645-0.083-.429-0.167-0.858-0.237-1.289-0.042-.258-0.073-0.516-0.11-0.775-0.056-.389-0.113-0.777-0.158-1.167-0.032-.277-0.054-0.554-0.081-0.831-0.036-.372-0.073-0.744-0.1-1.117-0.02-.287-0.031-0.574-0.045-0.862-0.018-.363-0.037-0.725-0.046-1.088-0.007-.294-0.007-0.587-0.009-0.881,0-.356,0-0.713,0-1.07,0.005-.3.017-0.594,0.029-0.891,0.013-.352.028-0.7,0.05-1.055,0.018-.3.042-0.6,0.067-0.9,0.017-.207.027-0.414,0.046-0.621a46.656,46.656,0,0,1,.846-5.3c0.058-.272.105-0.545,0.167-0.816,0.034-.145.055-0.292,0.09-0.436a48.076,48.076,0,0,1,3.816-10.362,47.383,47.383,0,0,1,2.723-4.7,46.116,46.116,0,0,1,3.541-4.7,44.1,44.1,0,0,1,3.239-3.345c0.182-.173.372-0.338,0.558-0.507,0.443-.4.87-0.825,1.329-1.208a39.839,39.839,0,0,1,10.151-6.2,16.925,16.925,0,0,1,1.659-.592c0.188-.057.379-0.095,0.567-0.145,0.373-.1.746-0.2,1.123-0.272,0.227-.045.457-0.072,0.686-0.108,0.342-.054.685-0.11,1.03-0.145,0.245-.024.491-0.035,0.737-0.05,0.333-.022.666-0.043,1-0.048,0.077,0,.154-0.01.232-0.011,0.206,0,.416.028,0.623,0.033q0.707,0.016,1.415.074c0.279,0.024.557,0.048,0.837,0.081q1.008,0.118,2.019.314c0.048,0.01.1,0.013,0.145,0.023l0.315,0.077h0l-0.315-.077q0.612,0.123,1.224.274l21.125,5.183c0.239-.594.475-1.186,0.727-1.791,0.064-.153.123-0.3,0.188-0.456,0.422-1,.867-2.013,1.326-3.026,0.117-.258.238-0.515,0.357-0.773q0.588-1.269,1.214-2.527c0.079-.161.151-0.324,0.232-0.484,0.063-.126.135-0.246,0.2-0.372q0.743-1.455,1.541-2.875c0.122-.216.245-0.43,0.369-0.644q0.824-1.426,1.706-2.789c0.065-.1.122-0.207,0.187-0.306,0.235-.357.486-0.691,0.727-1.039,0.228-.33.454-0.663,0.688-0.985,0.257-.352.522-0.69,0.786-1.031q0.416-.537.842-1.054c0.144-.174.28-0.364,0.426-0.534,0.278-.324.572-0.618,0.858-0.927l0.255-.276q0.6-.639,1.229-1.231c0.292-.277.585-0.55,0.884-0.81,0.125-.109.243-0.233,0.369-0.338a20.425,20.425,0,0,1,5.186-3.223c0.795-.332,1.591-0.623,2.387-0.893,0.166-.056.332-0.114,0.5-0.168,0.773-.25,1.547-0.475,2.32-0.669,0.136-.034.271-0.062,0.407-0.094q1.076-.256,2.149-0.441c0.113-.019.225-0.043,0.337-0.061,0.773-.124,1.543-0.216,2.311-0.285,0.168-.015.336-0.028,0.5-0.04,0.754-.056,1.5-0.1,2.252-0.1,0.634,0,1.264.017,1.891,0.051,0.117,0.006.232,0.017,0.349,0.025q0.729,0.047,1.451.125c0.184,0.021.367,0.045,0.55,0.068q0.623,0.081,1.239.185c0.2,0.034.4,0.068,0.6,0.106,0.123,0.023.247,0.04,0.369,0.064q0.635,0.129,1.262.283l22.389,5.493c-0.111-.027-0.225-0.043-0.337-0.069,11.5,2.689,21.043,11.777,24.534,25.175C550.568,428,547.2,439.131,544.483,448.076ZM421.576,464.861c-0.055-.3-0.117-0.6-0.166-0.9h0C421.459,464.26,421.518,464.56,421.576,464.861Zm-0.387-2.49c-0.014-.119-0.034-0.236-0.048-0.355h0C421.155,462.135,421.174,462.252,421.189,462.371ZM420.9,458.72c-0.008-.2-0.02-0.4-0.025-0.6h0C420.876,458.318,420.887,458.519,420.9,458.72Zm-0.034-1.484h0c0-.357,0-0.713,0-1.069h0C420.859,456.523,420.86,456.879,420.862,457.236Zm0.149-3.91h0Zm23.517-36.784c0.09-.047.181-0.092,0.272-0.139-0.049.025-.1,0.045-0.15,0.071S444.568,416.519,444.528,416.542Zm2.99-1.416a16.873,16.873,0,0,1,1.819-.629c-0.076.02-.153,0.038-0.228,0.061A16.866,16.866,0,0,0,447.518,415.126Zm2.528-.81c0.417-.1.836-0.195,1.257-0.267-0.195.032-.39,0.064-0.584,0.1C450.493,414.2,450.27,414.259,450.046,414.316Zm2.29-.417c-0.077.009-.154,0.023-0.232,0.033,0.419-.053.84-0.1,1.262-0.12-0.076,0-.153,0-0.23.01C452.869,413.842,452.6,413.869,452.336,413.9Zm2.626-.115,0.164,0-0.03,0C455.051,413.783,455.007,413.785,454.962,413.784Zm1.632,0.079c0.223,0.019.446,0.043,0.67,0.069-0.172-.022-0.344-0.046-0.515-0.061C456.7,413.866,456.646,413.867,456.594,413.863Zm2.561,0.349-0.137-.021c0.172,0.031.344,0.062,0.516,0.1a0.02,0.02,0,0,0,0-.008C459.41,414.253,459.283,414.236,459.155,414.212Zm23.593,3.54c0.037-.087.07-0.173,0.107-0.26h0C482.818,417.579,482.783,417.665,482.748,417.752Zm1.434-3.289h0c0.117-.257.237-0.513,0.356-0.77h0C484.419,413.95,484.3,414.206,484.182,414.463Zm3.82-7.512,0.136-.234c-0.014.025-.03,0.048-0.044,0.072Zm1.765-2.9c0.015-.022.028-0.045,0.043-0.067l-0.016.024Zm4.186-5.539-0.031.036,0.092-.1,0,0C493.992,398.473,493.972,398.493,493.953,398.514Zm1.811-1.865,0.027-.026-0.018.017Zm1.923-1.661c0.1-.075.19-0.156,0.287-0.23C497.877,394.832,497.783,394.912,497.687,394.988Zm1.615-1.173,0,0c-0.13.084-.255,0.184-0.383,0.272,0.29-.2.583-0.388,0.879-0.568C499.631,393.621,499.463,393.709,499.3,393.815Zm1.475-.873c-0.064.034-.126,0.074-0.189,0.108-0.03.017-.059,0.037-0.089,0.053a18.173,18.173,0,0,1,1.738-.857C501.741,392.453,501.255,392.687,500.777,392.942Zm3.848-1.589-0.012,0c0.207-.07.413-0.137,0.62-0.2-0.038.012-.075,0.02-0.112,0.032C504.955,391.239,504.79,391.3,504.625,391.353Zm2.756-.819c0.03-.007.06-0.017,0.089-0.024l-0.027.006C507.422,390.522,507.4,390.529,507.381,390.534Zm2.618-.553-0.019,0c0.2-.034.4-0.064,0.6-0.1-0.083.013-.165,0.017-0.248,0.031C510.223,389.939,510.111,389.962,510,389.981Zm2.593-.339,0.1-.011-0.05,0Zm3.019-.136h0Zm5.318,0.451c-0.12-.02-0.239-0.044-0.359-0.063l-0.037,0c0.154,0.024.306,0.054,0.459,0.08C520.971,389.967,520.95,389.961,520.929,389.957Z"/>
    <path id="形状_4-2" data-name="形状 4" class="cls-15" d="M502.237,392.246c19.4-8.113,39.622,2.327,45.076,23.262,3.255,12.5-.114,23.623-2.83,32.568-7.872,25.972-34.457,65.3-35.59,66.972a9.415,9.415,0,0,1-4.113,3.44,7.448,7.448,0,0,1-4.928.34c-1.686-.488-41.522-12.049-60.064-26.976-6.378-5.142-14.313-11.543-17.569-24.04-5.453-20.934,5.9-44.573,25.3-52.686,10.766-4.5,23.826,3.023,32.7,9.058C484.511,412.643,491.471,396.748,502.237,392.246Z"/>
    <path id="形状_4-3" data-name="形状 4" class="cls-16" d="M622.775,513.688c0,0.2,0,.391,0,0.586-0.011.275-.039,0.549-0.064,0.823-0.017.183-.026,0.367-0.049,0.55-0.039.3-.1,0.6-0.155,0.9-0.029.153-.048,0.306-0.082,0.458-0.1.451-.22,0.9-0.363,1.341-1.4,4.336-4.328,6.429-6.68,8.11-6.837,4.879-21.106,8.138-21.71,8.275-0.03.007-.059,0.013-0.089,0.018l-8,1.478,0.089-.018a2.632,2.632,0,0,1-1.729-.221,3.321,3.321,0,0,1-1.379-1.3c-0.365-.61-8.926-15.01-11.168-24.319-0.774-3.207-1.733-7.195-.331-11.531a11.823,11.823,0,0,1,9.349-8.386c-0.1.015-.21,0.018-0.312,0.037l8-1.478c0.149-.028.3-0.052,0.45-0.073l-0.3.055h0l0.3-.055c0.2-.029.408-0.038,0.613-0.056,0.128-.011.255-0.028,0.385-0.034a11.071,11.071,0,0,1,1.288,0c0.035,0,.069.009,0.1,0.011,0.308,0.023.618,0.058,0.928,0.106,0.114,0.018.228,0.041,0.342,0.062,0.241,0.045.482,0.1,0.724,0.157,0.124,0.031.248,0.063,0.372,0.1,0.245,0.069.489,0.149,0.733,0.235,0.111,0.039.221,0.074,0.331,0.116,0.35,0.135.7,0.282,1.047,0.452a7.207,7.207,0,0,1,1.761,1.241,10.854,10.854,0,0,1,1.193,1.335c0.056,0.074.1,0.163,0.158,0.239,0.212,0.291.409,0.6,0.606,0.918,0.118,0.188.251,0.355,0.363,0.55,0.043,0.073.08,0.152,0.121,0.226,0.119,0.211.232,0.427,0.345,0.644,0.09,0.174.182,0.346,0.269,0.523,0.11,0.227.214,0.458,0.319,0.688,0.07,0.155.146,0.306,0.213,0.461,0.026,0.06.049,0.12,0.074,0.179q0.193,0.454.373,0.91,0.057,0.141.111,0.282c0.141,0.366.277,0.731,0.4,1.092,0.02,0.056.038,0.11,0.058,0.166,0.076,0.218.147,0.431,0.219,0.645l7.547-1.394c0.146-.027.292-0.051,0.437-0.072,0.2-.028.4-0.041,0.595-0.057l0.075-.008a8.5,8.5,0,0,1,1.116-.017l-0.059.011h0l0.059-.011c0.027,0,.053.01,0.08,0.012a7.166,7.166,0,0,1,.8.122c0.136,0.026.276,0.036,0.411,0.071a6.094,6.094,0,0,1,1.16.422,12.307,12.307,0,0,1,1.531.9c0.291,0.192.565,0.4,0.84,0.617,0.127,0.1.254,0.2,0.378,0.307,0.231,0.191.481,0.362,0.7,0.567a15.333,15.333,0,0,1,1.7,1.888,16.216,16.216,0,0,1,1.152,1.728,16.947,16.947,0,0,1,2,5.441c0.011,0.056.009,0.114,0.019,0.17,0.031,0.183.035,0.368,0.06,0.551,0.073,0.535.156,1.069,0.176,1.608C622.786,513.263,622.776,513.476,622.775,513.688Zm-8.052,2.716c0.02-.217.042-0.434,0.051-0.652h0C614.765,515.97,614.74,516.186,614.723,516.4Zm-0.131,1.118c-0.026.17-.055,0.34-0.087,0.509h0C614.537,517.862,614.563,517.692,614.592,517.522Zm-33.2-27.176c0.128-.008.257-0.009,0.386-0.013-0.073,0-.148-0.005-0.221,0C581.5,490.334,581.449,490.34,581.394,490.346Zm1.37,0c0.175,0.01.351,0.023,0.527,0.042-0.115-.012-0.23-0.031-0.345-0.04C582.885,490.342,582.825,490.348,582.764,490.344Zm1.1,0.107c-0.025,0-.049,0-0.074-0.008,0.244,0.036.488,0.087,0.733,0.139-0.105-.022-0.21-0.048-0.315-0.068S583.983,490.469,583.868,490.451Zm1.228,0.262c0.239,0.063.478,0.139,0.717,0.218-0.169-.056-0.337-0.114-0.506-0.162C585.237,490.749,585.167,490.732,585.1,490.713Zm1.275,0.408-0.081-.028c0.377,0.142.754,0.3,1.128,0.479C587.071,491.4,586.721,491.256,586.371,491.121Zm1.869,0.941c0.049,0.034.1,0.072,0.146,0.107-0.032-.024-0.062-0.053-0.095-0.076C588.274,492.081,588.256,492.074,588.24,492.062Zm0.807,0.643,0.06,0.054c-0.008-.007-0.015-0.016-0.022-0.023S589.06,492.716,589.047,492.705Zm4.168,6.785,0.015,0.038-0.015-.038h0Zm0.953,2.665,0.033,0.1h0Zm10.948-1.806,0.023,0.006-0.011,0Zm2.093,0.945c-0.32-.194-0.645-0.379-0.983-0.544C606.564,500.915,606.887,501.1,607.209,501.294Zm0.582,0.371c0.069,0.046.137,0.094,0.2,0.141-0.031-.022-0.059-0.047-0.09-0.068S607.829,501.69,607.791,501.665Z"/>
    <path id="形状_4-4" data-name="形状 4" class="cls-17" d="M587.418,491.572c-6.669-3.254-14,.01-16.354,7.273-1.4,4.336-.443,8.324.331,11.531,2.242,9.309,10.8,23.709,11.168,24.319a3.321,3.321,0,0,0,1.379,1.3,2.632,2.632,0,0,0,1.729.221c0.6-.138,14.873-3.4,21.71-8.276,2.352-1.681,5.278-3.773,6.68-8.109,2.349-7.263-1.166-15.822-7.835-19.077-3.7-1.806-8.455.578-11.7,2.523C593.245,499.12,591.118,493.378,587.418,491.572Z"/>
    <path id="形状_4-5" data-name="形状 4" class="cls-18" d="M553.2,613.842c0.108,4.61-1.975,8.2-3.652,11.089-4.866,8.383-17.331,19.876-17.861,20.363a3.361,3.361,0,0,1-1.712.858,2.663,2.663,0,0,1-1.741-.285l0.081,0.043-7.332-3.744-0.081-.044c-0.546-.307-13.446-7.591-18.668-14.3-1.8-2.31-4.029-5.186-4.136-9.8-0.011-.471,0-0.94.035-1.407,0.011-.157.037-0.312,0.053-0.468,0.031-.308.061-0.616,0.111-0.92,0.03-.185.075-0.366,0.111-0.549,0.055-.273.107-0.546,0.176-0.815,0.049-.192.111-0.381,0.167-0.571,0.061-.206.112-0.415,0.181-0.618,0.029-.084.073-0.161,0.1-0.244a16.745,16.745,0,0,1,.754-1.791c0.024-.049.039-0.1,0.064-0.152a17.026,17.026,0,0,1,1.02-1.748,17.574,17.574,0,0,1,1.155-1.541,17.1,17.1,0,0,1,1.332-1.411,16.435,16.435,0,0,1,1.617-1.344,15.615,15.615,0,0,1,2.2-1.339,14.215,14.215,0,0,1,4.037-1.323,6.1,6.1,0,0,1,1.247-.074c0.142,0,.28.036,0.42,0.05a7.171,7.171,0,0,1,.81.113c0.026,0.006.054,0,.081,0.011a8.492,8.492,0,0,1,1.077.339l0.071,0.029c0.187,0.073.375,0.142,0.56,0.227l0.263,0.134h0l-0.263-.134c0.135,0.063.27,0.128,0.4,0.2l6.926,3.537c0.154-.217.286-0.422,0.446-0.642l0.04-.055c0.5-.689,1.04-1.385,1.606-2.061l0.049-.063c0.11-.131.227-0.255,0.339-0.384,0.169-.194.336-0.388,0.51-0.577,0.135-.147.274-0.287,0.412-0.43,0.172-.177.344-0.353,0.519-0.524,0.062-.06.121-0.126,0.184-0.185,0.4-.378.813-0.726,1.232-1.052l0.008-.006c0.116-.09.229-0.187,0.346-0.272a11.1,11.1,0,0,1,1.543-.95,7.277,7.277,0,0,1,2.067-.695c0.386-.064.768-0.106,1.146-0.135,0.119-.01.236-0.012,0.354-0.018,0.262-.013.522-0.019,0.78-0.016,0.13,0,.26.006,0.389,0.011,0.252,0.011.5,0.031,0.748,0.058,0.117,0.012.234,0.022,0.349,0.038,0.316,0.043.626,0.1,0.932,0.166,0.034,0.007.07,0.011,0.1,0.018a11.344,11.344,0,0,1,1.251.371c0.124,0.043.242,0.1,0.364,0.145,0.193,0.076.39,0.144,0.577,0.23l0.274,0.14h0l-0.274-.14c0.141,0.065.279,0.132,0.416,0.2l7.332,3.744c-0.093-.047-0.195-0.08-0.29-0.125A11.968,11.968,0,0,1,553.2,613.842Zm-47.656,5.841c0.027-.236.047-0.474,0.085-0.708h0C505.587,619.209,505.564,619.446,505.54,619.683Zm0.3-1.718c0.027-.117.046-0.237,0.076-0.354h0C505.882,617.728,505.861,617.847,505.836,617.965Zm0.243-.923h0Zm8.967-10.438c-0.025.011-.048,0.027-0.074,0.039,0.091-.041.183-0.08,0.274-0.12-0.044.02-.091,0.032-0.135,0.052Zm1.649-.629c-0.061.019-.118,0.048-0.179,0.067,0.133-.043.265-0.09,0.4-0.13a0.058,0.058,0,0,1-.014,0C516.833,605.936,516.763,605.954,516.7,605.975Zm1.843-.446a6.158,6.158,0,0,1,.631-0.064A5.417,5.417,0,0,0,518.538,605.529Zm1.149-.069h0.046l-0.014,0h-0.032Zm10.909,3.833c0.008-.011.015-0.022,0.024-0.033h0C530.611,609.271,530.6,609.282,530.6,609.293Zm1.63-2.094h0Zm7.208-5.138c0.416-.069.826-0.11,1.233-0.139l-0.087,0C540.2,601.955,539.82,602,539.434,602.061Zm1.744-.157c0.253-.008.506-0.013,0.755,0-0.073,0-.146-0.006-0.22-0.007C541.536,601.89,541.357,601.9,541.178,601.9Zm1.672,0.057c-0.107-.011-0.216-0.016-0.324-0.025,0.252,0.02.5,0.042,0.75,0.077-0.025,0-.049-0.01-0.075-0.013C543.085,601.984,542.967,601.974,542.85,601.961Zm0.932,0.142c0.176,0.033.349,0.071,0.521,0.112-0.059-.014-0.116-0.037-0.176-0.05C544.014,602.14,543.9,602.125,543.782,602.1Zm1.695,0.448c-0.07-.025-0.144-0.039-0.215-0.062,0.123,0.041.248,0.078,0.37,0.123C545.58,602.591,545.529,602.569,545.477,602.551Z"/>
    <path id="形状_4-6" data-name="形状 4" class="cls-19" d="M539.434,602.061c7.41-1.23,13.583,4.057,13.762,11.781,0.108,4.61-1.975,8.2-3.652,11.089-4.866,8.383-17.331,19.876-17.861,20.363a3.361,3.361,0,0,1-1.712.858,2.663,2.663,0,0,1-1.741-.285c-0.546-.308-13.446-7.592-18.667-14.3-1.8-2.311-4.03-5.186-4.137-9.8-0.18-7.724,5.7-15.011,13.112-16.241,4.111-.682,8.035,3,10.623,5.829C531.6,607.7,535.323,602.744,539.434,602.061Z"/>
    <rect id="圆角矩形_4" data-name="圆角矩形 4" class="cls-20" x="634" y="723" width="5" height="49" rx="2.5" ry="2.5"/>
    <path id="圆角矩形_4-2" data-name="圆角矩形 4" class="cls-21" d="M646.5,748.353a2.5,2.5,0,0,1,2.5,2.5V769.5a2.5,2.5,0,0,1-5,0V750.853A2.5,2.5,0,0,1,646.5,748.353Z"/>
    <rect id="圆角矩形_4-3" data-name="圆角矩形 4" class="cls-20" x="700" y="723" width="5" height="49" rx="2.5" ry="2.5"/>
    <path id="圆角矩形_4-4" data-name="圆角矩形 4" class="cls-21" d="M712.5,748.353a2.5,2.5,0,0,1,2.5,2.5V769.5a2.5,2.5,0,0,1-5,0V750.853A2.5,2.5,0,0,1,712.5,748.353Z"/>
    <rect id="圆角矩形_3" data-name="圆角矩形 3" class="cls-22" x="627" y="723" width="84" height="5" rx="2.5" ry="2.5"/>
    <rect id="圆角矩形_3-2" data-name="圆角矩形 3" class="cls-22" x="627" y="731" width="84" height="5" rx="2.5" ry="2.5"/>
    <rect id="圆角矩形_3-3" data-name="圆角矩形 3" class="cls-22" x="627" y="739" width="84" height="5" rx="2.5" ry="2.5"/>
    <path id="圆角矩形_3-4" data-name="圆角矩形 3" class="cls-23" d="M629.5,748h85.068a2.5,2.5,0,0,1,0,5H629.5A2.5,2.5,0,0,1,629.5,748Z"/>
    <path id="圆角矩形_2" data-name="圆角矩形 2" class="cls-24" d="M256.387,406.212l112.369-66.574c2.2-1.259,3.792-2.62,5.051-.418s-0.722,2.881-2.924,4.139L260.944,414.187A4.593,4.593,0,0,1,256.387,406.212Z"/>
    <path id="多边形_2-3" data-name="多边形 2" class="cls-25" d="M306.63,434.665a9.734,9.734,0,0,0-9.478-5q-6.238.344-.895-2.9a9.736,9.736,0,0,0,5-9.478q-0.344-6.238,2.895-.895a9.733,9.733,0,0,0,9.478,5q6.238-.344.895,2.895a9.734,9.734,0,0,0-5,9.478Q309.869,440.008,306.63,434.665Z"/>
    <path id="多边形_2-4" data-name="多边形 2" class="cls-26" d="M745.63,664.665a9.734,9.734,0,0,0-9.478-5q-6.238.344-.9-2.895a9.736,9.736,0,0,0,5-9.478q-0.343-6.239,2.9-.895a9.733,9.733,0,0,0,9.478,5q6.239-.344.895,2.895a9.734,9.734,0,0,0-5,9.478Q748.869,670.008,745.63,664.665Z"/>
    <path id="collect" class="cls-27" d="M398.584,669.633c2.713,1.608,5.034,1.949,6.8.951l-2.629-4.691a4.045,4.045,0,0,1-3.971-.451,10.736,10.736,0,0,1-4.839-9.413c0-4.055,2.209-5.151,4.9-3.56a11.5,11.5,0,0,1,3.608,3.76l2.629-1.63a19.645,19.645,0,0,0-6.321-6.459c-5.287-3.133-9.929-1.912-9.929,5.024C388.823,660.212,393.3,666.5,398.584,669.633ZM415.5,679.657c5.678,3.364,9.538,1.568,9.538-5.256a19.226,19.226,0,0,0-9.538-16.337c-5.678-3.364-9.537-1.792-9.537,5.032A19.56,19.56,0,0,0,415.5,679.657Zm0-4.308c-2.741-1.624-4.419-5.164-4.419-9.219,0-4.028,1.678-5.411,4.419-3.786s4.447,5.012,4.447,9.04C419.945,675.44,418.239,676.974,415.5,675.349Zm12.487,11.316,13.09,7.757v-4.2l-8.084-4.79V668.823l-5.006-2.967v20.809Zm15.454,9.158,13.09,7.757v-4.2l-8.083-4.79V677.981l-5.007-2.967v20.809Zm15.455,9.159,13.509,8v-4.195l-8.5-5.039v-4.419l6.964,4.127v-4.2l-6.964-4.127v-3.86l8.2,4.856V692l-13.2-7.824v20.81Zm25.033,15.227c2.713,1.607,5.035,1.948,6.8.951l-2.629-4.691a4.048,4.048,0,0,1-3.972-.452,10.732,10.732,0,0,1-4.838-9.412c0-4.056,2.209-5.152,4.894-3.56a11.482,11.482,0,0,1,3.608,3.76l2.629-1.63a19.626,19.626,0,0,0-6.321-6.459c-5.286-3.133-9.929-1.913-9.929,5.024C474.166,710.788,478.641,717.076,483.927,720.209Zm13.592,7.663,5.007,2.966V714.169l5.649,3.348v-4.14L491.9,703.731v4.139l5.622,3.332v16.67Z"/>
    <path id="形状_13" data-name="形状 13" class="cls-28" d="M686,774s-0.843,4.636-1,5,7.657,0.464,10,0,1-4,1-4-4.535-1.328-5-1a0.97,0.97,0,0,1-1,0S687.2,774.828,686,774Z"/>
    <path id="形状_12" data-name="形状 12" class="cls-29" d="M686,771v3.219h4V771h-4Z"/>
    <path id="形状_9" data-name="形状 9" class="cls-30" d="M662.629,696.752s0.606,1.681-1.48,3.716,3.615,5.307,4.645,2.85,1.48-3.716,1.48-3.716Z"/>
    <path id="形状_12-2" data-name="形状 12" class="cls-29" d="M677.808,771.575l-0.6,3.738,3.982-.373,0.6-3.739Z"/>
    <path id="形状_13-2" data-name="形状 13" class="cls-28" d="M677.412,774.875s-1.229,3.525-1.424,3.869,2.191,4.94,4.57,4.73,2.317-2.875,2.317-2.875,0.006-5.462-.492-5.186a0.97,0.97,0,0,1-.994-0.108S678.512,775.827,677.412,774.875Z"/>
    <path id="形状_14" data-name="形状 14" class="cls-31" d="M672,735s17.531,4.738,18,9.336c0.844,10.228,0,26.57,0,26.57s-3.72,1.525-5-1.661-3.353-19.238-3-20.245-12.9,1.7-16-4.967S668.355,731.6,672,735Z"/>
    <path id="形状_10" data-name="形状 10" class="cls-32" d="M667,740c1.3-1.219,1.744-3.313.255-6.8S638.5,734.253,654,747.845c14.133,1.374,18.923.453,18.923,0.453a14.19,14.19,0,0,0,4.186-.573C685.2,743.755,672.566,738.1,667,740Z"/>
    <path id="形状_10-2" data-name="形状 10" class="cls-32" d="M672.576,751.147c-1.278,9.064,4.6,18.93,4.746,19.991,0.153,1.1,5.318-.7,5.318-0.7-0.872-1.966-1.36-16.338-1.842-20.365,0,0-.261-2.78-4.8-3.242C672.983,746.519,670.2,746.409,672.576,751.147Z"/>
    <path id="形状_4-7" data-name="形状 4" class="cls-29" d="M672.98,709.563c1.939-.008,5.575,11.788,5.5,17.2s-7.972-10.251-8.253-13.224S671.04,709.571,672.98,709.563Z"/>
    <path id="形状_15" data-name="形状 15" class="cls-33" d="M664.918,707s3.753,7.643,4.875,8.221,7.81-2.911,6.154-5.209c-2.207-3.062-4.9-8.115-8.217-7.411S664.918,707,664.918,707Z"/>
    <path id="形状_2" data-name="形状 2" class="cls-34" d="M675,736c-9.21-2.911-26,5-26,5-0.531-23.4,7-23,7-23s2.984,0.767-7,0c-2.395-15.076,11-17,11-17,1.7,1.842,4.316,1.537,8,0C676.485,713.752,671.831,724.781,675,736Z"/>
    <path id="形状_3" data-name="形状 3" class="cls-30" d="M649.424,718s-0.666,10.861,1.781,10.734,5.7,0.34,6.658-10.734h-8.439Z"/>
    <path id="形状_4-8" data-name="形状 4" class="cls-29" d="M650.445,725.045c1.086-1.882,12.88,2.385,17.312,6.027s-12.959.949-15.575-.742S649.359,726.928,650.445,725.045Z"/>
    <path id="形状_7" data-name="形状 7" class="cls-29" d="M671.834,693.9c0.617,1.188-.068,2.917-1.321,4.272s-3.253,2.236-3.776,1.718-4.663-2.626-4.311-3.926,0.894-3.292.894-3.292-1.406-.936-0.754-2.105a1.879,1.879,0,0,1,2.106-.754,15.878,15.878,0,0,1,.66-2.136c0.369-.874,7.037-0.06,7.162,4.087S671.59,693.43,671.834,693.9Z"/>
    <path id="形状_8" data-name="形状 8" class="cls-31" d="M672.4,687.521c-1.879-1.281-5.546-3.852-9.2-.5s-1.69,4.132-2.013,5,0.067,1.323-.66,2.136,1.969,2.448,3.136.66,1.131-1.342.661-2.136,0.973-3.33,2.1-.753a9.239,9.239,0,0,1-.031-1.414c0.075,0.21,4.877-.1,5.409,1.981s1.85,1.43,2.859,1.352,1.983-.742,1.382-1.445C676.025,692.369,674.28,688.8,672.4,687.521Z"/>
    <path id="圆角矩形_5" data-name="圆角矩形 5" class="cls-35" d="M669.86,722h18.993a1.649,1.649,0,0,1,1.666,2l-2.19,13.137a2.46,2.46,0,0,1-2.333,2H667a1.65,1.65,0,0,1-1.667-2L667.526,724A2.46,2.46,0,0,1,669.86,722Z"/>
    <path id="圆角矩形_5-2" data-name="圆角矩形 5" class="cls-36" d="M670.86,722h18.993a1.649,1.649,0,0,1,1.666,2l-2.19,13.137a2.46,2.46,0,0,1-2.333,2H668a1.65,1.65,0,0,1-1.667-2L668.526,724A2.46,2.46,0,0,1,670.86,722Z"/>
  </g>
</svg>
